<?xml version="1.0" encoding="UTF-8"?>
<svg version="1.1" xmlns="http://www.w3.org/2000/svg" width="512" height="512">
<path d="M0 0 C3.07061968 1.71368609 5.40450726 3.80901452 7 7 C7.23828125 8.953125 7.23828125 8.953125 7.3125 11.25 C7.34988281 11.99765625 7.38726562 12.7453125 7.42578125 13.515625 C6.1576789 20.91482769 -1.19284167 26.45428332 -6.25073242 31.46191406 C-7.19593852 32.40491617 -8.14069488 33.34836924 -9.08503723 34.29223633 C-11.11084049 36.31511769 -13.13974573 38.33481552 -15.17116356 40.35205841 C-18.3819144 43.54047195 -21.58549667 46.7360242 -24.78816223 49.93255615 C-29.85107036 54.98410615 -34.9186342 60.03095563 -39.98826343 65.07575965 C-49.07814879 74.12121804 -58.16236206 83.17236469 -67.24142915 92.22868133 C-70.42815008 95.40698528 -73.61765721 98.58245919 -76.80941999 101.75569963 C-78.31354297 103.25175589 -79.81655108 104.7489215 -81.31907654 106.24658203 C-83.15337047 108.07482803 -84.989494 109.90124082 -86.82772827 111.7255249 C-87.63108109 112.52736206 -88.4344339 113.32919922 -89.26213074 114.15533447 C-90.31486065 115.20278524 -90.31486065 115.20278524 -91.38885784 116.27139664 C-93.07796886 117.92036512 -93.07796886 117.92036512 -94 120 C-93.34257812 120.20496094 -92.68515625 120.40992187 -92.0078125 120.62109375 C-87.83349891 122.53477258 -84.47875905 125.24162791 -80.875 128.0625 C-80.11727295 128.6495874 -79.3595459 129.2366748 -78.57885742 129.84155273 C-72.63639592 134.46206165 -66.7619486 139.15566445 -61 144 C-60.47905762 144.43602539 -59.95811523 144.87205078 -59.42138672 145.32128906 C-49.98463464 153.23704904 -40.89185263 161.47792042 -32 170 C-30.93265625 171.01634521 -30.93265625 171.01634521 -29.84375 172.05322266 C-6.52161543 194.36425236 7.26486491 217.83993956 8 251 C7.76680408 266.35550869 3.92464843 280.40412447 -2.6875 294.1875 C-2.9654541 294.78006592 -3.2434082 295.37263184 -3.52978516 295.9831543 C-9.34794989 307.43563842 -18.47913257 316.94372381 -27.56884766 325.85009766 C-29.13854341 327.38827143 -30.69697869 328.93719399 -32.25390625 330.48828125 C-37.66812024 335.86091331 -43.19336456 341.05104049 -49 346 C-50.28540702 347.12713781 -51.56925593 348.25605492 -52.8515625 349.38671875 C-54.10921369 350.48716354 -55.36702551 351.5874248 -56.625 352.6875 C-57.2540625 353.24244141 -57.883125 353.79738281 -58.53125 354.36914062 C-69.32430809 363.78507615 -69.32430809 363.78507615 -77.58984375 363.4609375 C-81.58166774 362.69750925 -83.28961148 360.98837709 -86 358 C-87.45214782 353.64355653 -87.86879175 349.74313489 -85.77734375 345.546875 C-83.86000294 342.79938883 -81.83835403 340.82173961 -79.3125 338.625 C-78.42175781 337.84382813 -77.53101563 337.06265625 -76.61328125 336.2578125 C-75.75089844 335.51273437 -74.88851563 334.76765625 -74 334 C-72.66620172 332.83386492 -71.33282874 331.66724309 -70 330.5 C-69.35160156 329.93410156 -68.70320313 329.36820312 -68.03515625 328.78515625 C-63.9847482 325.23230313 -59.98227281 321.62900667 -56 318 C-55.12601562 317.20384277 -55.12601562 317.20384277 -54.234375 316.39160156 C-35.53569574 299.30587656 -19.36076226 281.6198842 -17.76171875 255.0390625 C-17.19418561 232.69751243 -24.29474214 213.82071257 -39.61083984 197.4609375 C-40.29847412 196.73777344 -40.29847412 196.73777344 -41 196 C-41.87269531 195.0821875 -42.74539063 194.164375 -43.64453125 193.21875 C-47.8497918 188.92951343 -52.19451442 184.8599937 -56.76171875 180.9609375 C-59.04975171 178.95641299 -61.26438867 176.88286938 -63.47802734 174.796875 C-70.03723235 168.6363172 -76.86720791 162.99955967 -84.00927734 157.53173828 C-86.24172105 155.81401057 -88.45939143 154.07823292 -90.67578125 152.33984375 C-92.28381478 151.08067887 -93.89188727 149.82156374 -95.5 148.5625 C-96.25369873 147.97098145 -97.00739746 147.37946289 -97.78393555 146.77001953 C-99.84406281 145.16363133 -101.91691424 143.57646002 -104 142 C-104.85271484 141.34040283 -104.85271484 141.34040283 -105.72265625 140.66748047 C-108.51165709 138.55346551 -108.51165709 138.55346551 -111.86515808 138.12602234 C-114.84627104 139.34645281 -116.58865054 141.19147121 -118.8762207 143.45629883 C-119.34658249 143.91819107 -119.81694427 144.38008331 -120.30155945 144.85597229 C-121.85085679 146.38190799 -123.38873866 147.91875887 -124.92578125 149.45703125 C-125.99833761 150.5224876 -127.07119238 151.58764361 -128.14433289 152.6525116 C-130.38961103 154.88434835 -132.62886667 157.12203125 -134.86450195 159.36352539 C-137.73406575 162.23899721 -140.62148829 165.09576869 -143.51411152 167.94801807 C-145.73344769 170.14154805 -147.94125577 172.34640124 -150.145895 174.55469322 C-151.20612734 175.61322892 -152.27036304 176.66777017 -153.33858681 177.71824074 C-154.82814674 179.18574173 -156.30105902 180.6681571 -157.77075195 182.15551758 C-158.61362259 182.99633377 -159.45649323 183.83714996 -160.3249054 184.70344543 C-162.23933385 186.81472669 -162.23933385 186.81472669 -161.86662292 189.13139343 C-160.59030841 191.88337427 -158.97352983 194.33757919 -157.3125 196.875 C-142.90367159 219.72457964 -138.78323195 246.80613292 -144.4609375 273.13769531 C-148.15060204 288.08793219 -155.29318641 302.08456152 -165 314 C-165.66386719 314.82757813 -166.32773437 315.65515625 -167.01171875 316.5078125 C-183.71881676 336.21045304 -208.00360233 348.38592685 -233.68164062 350.53930664 C-257.45938382 352.24292918 -280.06917873 347.02351908 -299.765625 333.3828125 C-302.05206483 331.96777806 -303.32763359 331.20226034 -306 331 C-308.33314693 332.60102219 -308.33314693 332.60102219 -310.58496094 335.01733398 C-311.93590851 336.36884804 -311.93590851 336.36884804 -313.31414795 337.74766541 C-314.28782651 338.74687894 -315.26122906 339.74636149 -316.234375 340.74609375 C-317.23647566 341.75751873 -318.23968519 342.76784617 -319.24395752 343.77711487 C-321.88548371 346.43774084 -324.51165449 349.11303842 -327.13494873 351.79162598 C-329.81395801 354.52176332 -332.50716035 357.23781798 -335.19921875 359.95507812 C-340.48017179 365.28967135 -345.74498876 370.63983704 -351 376 C-348.38456426 378.74871619 -345.89702518 380.2209239 -342.46875 381.890625 C-341.35798096 382.43195068 -340.24721191 382.97327637 -339.1027832 383.53100586 C-337.91386475 384.09827393 -336.72494629 384.66554199 -335.5 385.25 C-334.89086761 385.54101593 -334.28173523 385.83203186 -333.65414429 386.13186646 C-284.13999974 409.71084272 -231.06116609 415.00487038 -178.69140625 397.25390625 C-162.26926467 391.38096374 -145.78070469 384.03265912 -131 374.75 C-126.27028078 371.86859602 -122.47817247 370.78512808 -117 372 C-113.5205037 373.36154203 -112.29233251 374.59073448 -110.125 377.625 C-108.69171568 381.92485296 -108.17717753 385.76087797 -110 390 C-114.67634527 395.14229671 -120.76131158 398.43022108 -126.8125 401.6875 C-127.76318359 402.20078857 -128.71386719 402.71407715 -129.69335938 403.24291992 C-155.03247206 416.63709606 -181.84349445 425.82523308 -210 431 C-210.71333496 431.13277344 -211.42666992 431.26554687 -212.16162109 431.40234375 C-232.45520374 434.97441565 -255.73691124 434.54470626 -276 431 C-277.23266602 430.78996338 -277.23266602 430.78996338 -278.49023438 430.57568359 C-309.02935156 425.15763462 -340.34679188 413.99131157 -366.4609375 397.1328125 C-368.8697709 395.70726936 -368.8697709 395.70726936 -370.89303589 396.67773438 C-373.35335263 398.2217532 -375.20146066 399.96191909 -377.25048828 402.0234375 C-378.0916217 402.86471191 -378.93275513 403.70598633 -379.79937744 404.57275391 C-380.71378601 405.49749512 -381.62819458 406.42223633 -382.5703125 407.375 C-383.54917608 408.35770307 -384.52849686 409.33995092 -385.50823975 410.32177734 C-387.61512554 412.43498064 -389.71886481 414.55125025 -391.82025146 416.66992188 C-395.14307679 420.01979959 -398.47352388 423.36202891 -401.80517578 426.703125 C-408.8760447 433.79619141 -415.93844574 440.89766208 -423 448 C-430.62346479 455.66749374 -438.24834821 463.3335426 -445.88303185 470.98986816 C-449.19480255 474.31160598 -452.50163438 477.63816063 -455.80477905 480.96847534 C-457.86024846 483.03886079 -459.91985057 485.10509673 -461.98059845 487.17022705 C-463.39068427 488.58584378 -464.79572839 490.00647689 -466.20062256 491.42724609 C-467.04175598 492.26852051 -467.8828894 493.10979492 -468.74951172 493.9765625 C-469.47806366 494.70955566 -470.2066156 495.44254883 -470.95724487 496.19775391 C-475.02065363 499.78274678 -478.43997053 500.49077611 -483.7421875 500.39453125 C-487.59075968 499.72202988 -489.33977988 497.79323112 -492 495 C-493.13557238 492.72885524 -493.23084318 491.27706381 -493.3125 488.75 C-493.34988281 488.00234375 -493.38726562 487.2546875 -493.42578125 486.484375 C-492.1576789 479.08517231 -484.80715833 473.54571668 -479.74926758 468.53808594 C-478.80406148 467.59508383 -477.85930512 466.65163076 -476.91496277 465.70776367 C-474.88915951 463.68488231 -472.86025427 461.66518448 -470.82883644 459.64794159 C-467.6180856 456.45952805 -464.41450333 453.2639758 -461.21183777 450.06744385 C-456.14892964 445.01589385 -451.0813658 439.96904437 -446.01173657 434.92424035 C-436.92185121 425.87878196 -427.83763794 416.82763531 -418.75857085 407.77131867 C-415.57184992 404.59301472 -412.38234279 401.41754081 -409.19058001 398.24430037 C-407.68645703 396.74824411 -406.18344892 395.2510785 -404.68092346 393.75341797 C-402.84662953 391.92517197 -401.010506 390.09875918 -399.17227173 388.2744751 C-398.36891891 387.47263794 -397.5655661 386.67080078 -396.73786926 385.84466553 C-396.03604932 385.14636501 -395.33422937 384.4480645 -394.61114216 383.72860336 C-392.92203114 382.07963488 -392.92203114 382.07963488 -392 380 C-392.98613281 379.69255859 -392.98613281 379.69255859 -393.9921875 379.37890625 C-398.16651816 377.4652196 -401.52118775 374.75832686 -405.125 371.9375 C-405.88200195 371.3511377 -406.63900391 370.76477539 -407.41894531 370.16064453 C-413.36270696 365.54011061 -419.22610979 360.83138754 -425 356 C-426.0003125 355.17371094 -427.000625 354.34742188 -428.03125 353.49609375 C-436.66629123 346.32363085 -444.897648 338.7662323 -453 331 C-454.16668213 329.89229248 -454.16668213 329.89229248 -455.35693359 328.76220703 C-477.62309685 307.53598332 -492.69196527 284.51504387 -494.03125 252.94140625 C-493.89740363 236.06003221 -490.59073067 220.94118355 -483.25 205.75 C-482.82050049 204.84858276 -482.82050049 204.84858276 -482.38232422 203.92895508 C-476.53230698 192.47331176 -467.73484336 183.28715224 -458.65209961 174.37084961 C-456.92873814 172.67889783 -455.21650943 170.97627855 -453.50585938 169.27148438 C-447.8361561 163.64161952 -442.09319868 158.17372384 -436 153 C-434.79638659 151.94344248 -433.59455829 150.88484788 -432.39453125 149.82421875 C-424.49321534 142.88807393 -416.45155992 136.25685481 -408 130 C-407.33661621 129.50532227 -406.67323242 129.01064453 -405.98974609 128.50097656 C-367.00350045 99.51326246 -324.08939386 77.70038376 -276 69 C-275.29101562 68.86867676 -274.58203125 68.73735352 -273.8515625 68.60205078 C-253.5531112 65.02675538 -230.26869779 65.45431253 -210 69 C-209.17822266 69.14002441 -208.35644531 69.28004883 -207.50976562 69.42431641 C-176.97064844 74.84236538 -145.65320812 86.00868843 -119.5390625 102.8671875 C-117.1302291 104.29273064 -117.1302291 104.29273064 -115.10696411 103.32226562 C-112.64664737 101.7782468 -110.79853934 100.03808091 -108.74951172 97.9765625 C-107.9083783 97.13528809 -107.06724487 96.29401367 -106.20062256 95.42724609 C-105.28621399 94.50250488 -104.37180542 93.57776367 -103.4296875 92.625 C-102.45082392 91.64229693 -101.47150314 90.66004908 -100.49176025 89.67822266 C-98.38487446 87.56501936 -96.28113519 85.44874975 -94.17974854 83.33007812 C-90.85692321 79.98020041 -87.52647612 76.63797109 -84.19482422 73.296875 C-77.1239553 66.20380859 -70.06155426 59.10233792 -63 52 C-55.37653521 44.33250626 -47.75165179 36.6664574 -40.11696815 29.01013184 C-36.80519745 25.68839402 -33.49836562 22.36183937 -30.19522095 19.03152466 C-28.13975154 16.96113921 -26.08014943 14.89490327 -24.01940155 12.82977295 C-22.60931573 11.41415622 -21.20427161 9.99352311 -19.79937744 8.57275391 C-18.95824402 7.73147949 -18.1171106 6.89020508 -17.25048828 6.0234375 C-16.52193634 5.29044434 -15.7933844 4.55745117 -15.04275513 3.80224609 C-10.4805541 -0.22281245 -5.9331981 -1.03676991 0 0 Z M-321 107 C-322.18360107 107.48460693 -322.18360107 107.48460693 -323.39111328 107.97900391 C-358.45206482 122.56949853 -389.11861504 144.99392396 -417.75 169.625 C-418.67147827 170.4147522 -418.67147827 170.4147522 -419.61157227 171.22045898 C-423.38760817 174.49234444 -426.95538033 177.90776681 -430.46386719 181.46435547 C-432.15434331 183.15429425 -433.91538865 184.71835199 -435.75 186.25 C-453.24193233 201.47508616 -466.74453065 219.42821635 -469.23193359 243.21826172 C-470.56814361 262.6122752 -464.97408136 281.21018114 -452.9375 296.5625 C-444.96272989 305.71410251 -436.218661 314.50527224 -426.94140625 322.33984375 C-424.46555003 324.45702462 -422.08338732 326.66781829 -419.6875 328.875 C-410.7839025 336.98253995 -401.35914382 344.44351304 -391.74414062 351.68554688 C-390.53436507 352.59728142 -389.32752947 353.51292498 -388.12304688 354.43164062 C-386.23787874 355.86421499 -384.33987272 357.277882 -382.4375 358.6875 C-381.56194458 359.35736938 -381.56194458 359.35736938 -380.66870117 360.04077148 C-377.69791521 362.3363829 -377.69791521 362.3363829 -374.12324524 362.89289856 C-371.12721703 361.63296437 -369.33965657 359.73710743 -367.03198242 357.4519043 C-366.55186707 356.98025848 -366.07175171 356.50861267 -365.5770874 356.02267456 C-363.99532416 354.46427646 -362.42497471 352.89495441 -360.85546875 351.32421875 C-359.76049225 350.23634209 -358.66521725 349.14876581 -357.56965637 348.06147766 C-355.27729991 345.78256343 -352.99096516 343.49780022 -350.70825195 341.20922852 C-347.77815736 338.27322607 -344.83019599 335.35591467 -341.87703991 332.44313335 C-339.61138154 330.20328025 -337.35724819 327.95210279 -335.106287 325.69748878 C-334.02372614 324.61662467 -332.93716156 323.53975555 -331.84660912 322.46695518 C-330.32592316 320.96832604 -328.82186457 319.45476734 -327.32104492 317.9362793 C-326.46040939 317.07769821 -325.59977386 316.21911713 -324.71305847 315.33451843 C-322.76012934 313.19406229 -322.76012934 313.19406229 -323.12763977 310.86286926 C-324.41316882 308.1177045 -326.02766752 305.66059171 -327.6875 303.125 C-342.02986723 280.38081477 -346.33410363 253.13907912 -340.5390625 226.9140625 C-336.80801256 211.93246198 -329.74117444 197.95338772 -320 186 C-319.32453125 185.16082031 -318.6490625 184.32164062 -317.953125 183.45703125 C-301.51650201 164.11100601 -277.283173 152.63107528 -252.16308594 150.40991211 C-228.18501893 148.6372672 -204.0427551 154.24707857 -184.796875 169.06640625 C-183.06464811 170.17339818 -183.06464811 170.17339818 -181.17425537 169.82362366 C-178.2208235 168.70484231 -176.63736479 166.99666842 -174.41503906 164.75561523 C-173.06409149 163.40432777 -173.06409149 163.40432777 -171.68585205 162.02574158 C-170.71228128 161.03685152 -169.73887613 160.04779839 -168.765625 159.05859375 C-167.76308709 158.05045881 -166.75988341 157.04298554 -165.75604248 156.03614807 C-163.11902254 153.38768781 -160.49113676 150.7303417 -157.86505127 148.07104492 C-155.18241929 145.35769463 -152.49124748 142.65284395 -149.80078125 139.94726562 C-144.52545848 134.63979305 -139.25975629 129.3229043 -134 124 C-137.03465082 120.85223248 -139.67934073 118.92458349 -143.62890625 117.01171875 C-145.29022583 116.20456421 -145.29022583 116.20456421 -146.98510742 115.38110352 C-148.16564697 114.82221436 -149.34618652 114.2633252 -150.5625 113.6875 C-151.16913483 113.39898163 -151.77576965 113.11046326 -152.40078735 112.8132019 C-206.96612049 86.9228884 -264.83308496 83.97308824 -321 107 Z M-297.375 195.625 C-312.95942751 211.59038018 -319.29983142 230.57201909 -319.31469727 252.63623047 C-319.12072291 267.93610161 -314.48759377 281.26860934 -306 294 C-302.5255065 292.50710944 -300.27458903 290.52589685 -297.60870361 287.8626709 C-296.30046883 286.56289558 -296.30046883 286.56289558 -294.96580505 285.23686218 C-294.00737609 284.27454488 -293.04905133 283.31212379 -292.09082031 282.34960938 C-291.07587894 281.33737865 -290.06051271 280.32557377 -289.04475403 279.31416321 C-286.29038239 276.56890667 -283.54237141 273.81736454 -280.79572773 271.06437874 C-277.92261686 268.18620613 -275.04463163 265.31291432 -272.16741943 262.43884277 C-267.33863942 257.61370072 -262.51409078 252.78435789 -257.69189453 247.95263672 C-252.11064148 242.36048713 -246.52220314 236.77559575 -240.9300015 231.1943965 C-236.13222442 226.40568245 -231.3383397 221.61309806 -226.54771304 216.8172307 C-223.68484954 213.95124366 -220.82063881 211.08663819 -217.95291901 208.22550964 C-215.25947603 205.53782563 -212.57093763 202.84533155 -209.88617516 200.14897728 C-208.89781019 199.15795847 -207.90772205 198.16865494 -206.91583443 197.18116188 C-205.56707099 195.83782633 -204.22501226 194.48776877 -202.88336182 193.1373291 C-202.12899967 192.38221291 -201.37463753 191.62709671 -200.59741592 190.84909821 C-198.78209019 189.15501436 -198.78209019 189.15501436 -199 187 C-231.69049299 168.27398933 -269.29902452 168.21895019 -297.375 195.625 Z M-186.22671509 209.9727478 C-187.11295059 210.85334366 -187.9991861 211.73393951 -188.91227722 212.64122009 C-189.89685937 213.62969133 -190.88133767 214.61826601 -191.86572266 215.60693359 C-192.90007204 216.63857465 -193.93484679 217.66978936 -194.97001648 218.7006073 C-197.7865027 221.50794845 -200.59659283 224.32161261 -203.40534258 227.13669157 C-206.3398645 230.07626255 -209.27924646 233.01096705 -212.21786499 235.94644165 C-217.15275693 240.87769075 -222.08340718 245.81315163 -227.01171875 250.75097656 C-232.71676762 256.46691058 -238.42898605 262.17560366 -244.14498293 267.88058794 C-249.04463 272.77117118 -253.94038377 277.66562618 -258.83288038 282.56336272 C-261.75837124 285.49197827 -264.6852123 288.41921003 -267.61555862 291.34296799 C-270.36971249 294.09136216 -273.1189614 296.84456886 -275.8644352 299.60163307 C-276.87537422 300.61522608 -277.88803658 301.62710346 -278.90249825 302.63717079 C-280.28202206 304.01126693 -281.65484127 305.39208458 -283.0272522 306.77328491 C-284.1848149 307.93197869 -284.1848149 307.93197869 -285.36576271 309.11408043 C-287.21829291 310.83599787 -287.21829291 310.83599787 -287 313 C-272.36504302 324.26528291 -252.1891573 328.44134738 -234.125 326.375 C-215.96658141 323.93034609 -200.93449928 315.93449928 -188 303 C-187.29101562 302.29101562 -186.58203125 301.58203125 -185.8515625 300.8515625 C-170.6908395 284.76144652 -166.44058284 265.53164055 -166.734375 244.09765625 C-167.18478215 229.68683538 -172.96378851 218.28330082 -180 206 C-183.08021375 206 -184.07992172 207.82805007 -186.22671509 209.9727478 Z " fill="#000000" transform="translate(499,6)"/>
</svg>
